<?xml version="1.0" encoding="UTF-8" standalone="no"?>
<svg
   xmlns:dc="http://purl.org/dc/elements/1.1/"
   xmlns:cc="http://creativecommons.org/ns#"
   xmlns:rdf="http://www.w3.org/1999/02/22-rdf-syntax-ns#"
   xmlns:svg="http://www.w3.org/2000/svg"
   xmlns="http://www.w3.org/2000/svg"
   xmlns:sodipodi="http://sodipodi.sourceforge.net/DTD/sodipodi-0.dtd"
   xmlns:inkscape="http://www.inkscape.org/namespaces/inkscape"
   version="1.1"
   id="Capa_1"
   x="0px"
   y="0px"
   viewBox="0 0 412.72 490.08109"
   xml:space="preserve"
   sodipodi:docname="dog-above-book.svg"
   width="412.72"
   height="490.08109"
   inkscape:version="1.0.2 (e86c8708, 2021-01-15)"><metadata
   id="metadata998"><rdf:RDF><cc:Work
       rdf:about=""><dc:format>image/svg+xml</dc:format><dc:type
         rdf:resource="http://purl.org/dc/dcmitype/StillImage" /><dc:title></dc:title></cc:Work></rdf:RDF></metadata><defs
   id="defs996" /><sodipodi:namedview
   pagecolor="#ffffff"
   bordercolor="#666666"
   borderopacity="1"
   objecttolerance="10"
   gridtolerance="10"
   guidetolerance="10"
   inkscape:pageopacity="0"
   inkscape:pageshadow="2"
   inkscape:window-width="2025"
   inkscape:window-height="1129"
   id="namedview994"
   showgrid="false"
   fit-margin-top="0"
   fit-margin-left="0"
   fit-margin-right="0"
   fit-margin-bottom="0"
   inkscape:zoom="2.2169901"
   inkscape:cx="229.81522"
   inkscape:cy="160.24736"
   inkscape:window-x="1728"
   inkscape:window-y="90"
   inkscape:window-maximized="0"
   inkscape:current-layer="Capa_1" />
<g
   id="g961"
   transform="translate(0,135.66535)">
	<g
   id="g959">
		<path
   d="m 404.72,82.944 c -0.027,0 -0.054,0 -0.08,0 v 0 h -27.12 v -9.28 c 0.146,-3.673 -2.23,-6.974 -5.76,-8 -18.828,-4.934 -38.216,-7.408 -57.68,-7.36 -32,0 -75.6,7.2 -107.84,40 -32,-33.12 -75.92,-40 -107.84,-40 -19.464,-0.048 -38.852,2.426 -57.68,7.36 -3.53,1.026 -5.906,4.327 -5.76,8 v 9.2 H 8 c -4.418,0 -8,3.582 -8,8 v 255.52 c 0,4.418 3.582,8 8,8 1.374,-0.004 2.724,-0.362 3.92,-1.04 0.8,-0.4 80.8,-44.16 192.48,-16 h 1.2 0.72 c 0.638,0.077 1.282,0.077 1.92,0 112,-28.4 192,15.28 192.48,16 2.475,1.429 5.525,1.429 8,0 2.46,-1.42 3.983,-4.039 4,-6.88 V 90.944 c 0,-4.418 -3.581,-8 -8,-8 z M 16,333.664 V 98.944 h 19.12 v 200.64 c -0.05,4.418 3.491,8.04 7.909,8.09 0.432,0.005 0.864,-0.025 1.291,-0.09 16.55,-2.527 33.259,-3.864 50,-4 23.19,-0.402 46.283,3.086 68.32,10.32 -49.765,-6.018 -100.243,0.784 -146.64,19.76 z m 78.32,-46 c -14.551,0.033 -29.085,0.968 -43.52,2.8 V 79.984 c 15.576,-3.47 31.482,-5.241 47.44,-5.28 29.92,0 71.2,6.88 99.84,39.2 l 0.24,199.28 c -16.64,-10.88 -49.12,-25.52 -104,-25.52 z m 120,-173.76 c 28.64,-32 69.92,-39.2 99.84,-39.2 15.957,0.047 31.863,1.817 47.44,5.28 v 210.48 c -14.354,-1.849 -28.808,-2.811 -43.28,-2.88 -54.56,0 -87.12,14.64 -104,25.52 z m 182.32,219.76 c -46.496,-19.028 -97.09,-25.831 -146.96,-19.76 22.141,-7.26 45.344,-10.749 68.64,-10.32 16.846,0.094 33.663,1.404 50.32,3.92 4.368,0.663 8.447,-2.341 9.11,-6.709 0.065,-0.427 0.095,-0.859 0.09,-1.291 V 98.944 h 19.12 z"
   id="path957" />
	</g>
</g>
<g
   id="g963"
   transform="translate(0,135.66535)">
</g>
<g
   id="g965"
   transform="translate(0,135.66535)">
</g>
<g
   id="g967"
   transform="translate(0,135.66535)">
</g>
<g
   id="g969"
   transform="translate(0,135.66535)">
</g>
<g
   id="g971"
   transform="translate(0,135.66535)">
</g>
<g
   id="g973"
   transform="translate(0,135.66535)">
</g>
<g
   id="g975"
   transform="translate(0,135.66535)">
</g>
<g
   id="g977"
   transform="translate(0,135.66535)">
</g>
<g
   id="g979"
   transform="translate(0,135.66535)">
</g>
<g
   id="g981"
   transform="translate(0,135.66535)">
</g>
<g
   id="g983"
   transform="translate(0,135.66535)">
</g>
<g
   id="g985"
   transform="translate(0,135.66535)">
</g>
<g
   id="g987"
   transform="translate(0,135.66535)">
</g>
<g
   id="g989"
   transform="translate(0,135.66535)">
</g>
<g
   id="g991"
   transform="translate(0,135.66535)">
</g>
<g
   id="g1075"
   transform="matrix(0.75331309,0,0,0.75331309,13.477679,-24.629571)"><g
     id="g1073"><path
       d="M 490.748,146.253 C 474.454,118.82 451.563,92.725 436.107,79.035 402.367,49.142 374.222,49.87 360.445,52.966 354.657,54.267 349.342,56.412 344.663,59.273 320.624,41.434 291.38,32.695 256,32.695 c -35.38,0 -64.625,8.739 -88.663,26.579 -4.68,-2.861 -9.994,-5.007 -15.782,-6.307 C 137.782,49.872 109.633,49.143 75.895,79.035 60.438,92.726 37.548,118.821 21.252,146.254 -0.81,183.395 -5.724,213.44 6.646,235.557 21.75,262.56 44.66,269.47 63.155,271.174 c -4.546,17.655 -7.353,36.542 -7.353,60.075 0,31.193 7.1,58.029 21.105,79.763 12.311,19.108 30.035,34.409 52.679,45.478 41.838,20.451 92.185,22.816 126.415,22.816 34.23,0 84.578,-2.365 126.415,-22.816 22.643,-11.069 40.368,-26.37 52.679,-45.478 14.004,-21.735 21.105,-48.571 21.105,-79.763 0,-23.532 -2.807,-42.419 -7.353,-60.075 18.495,-1.705 41.406,-8.616 56.509,-35.618 12.368,-22.115 7.453,-52.161 -14.608,-89.303 z M 72.878,240.307 C 56.51,239.877 43.2,236.708 33.999,220.259 c -6.242,-11.161 -1.067,-32.301 14.2,-58.002 14.489,-24.393 35.286,-48.079 48.478,-59.766 21.786,-19.304 38.118,-20.367 45.802,-19.338 -22.867,27.876 -36.883,64.104 -48.604,99.327 -4.854,14.586 -9.532,27.039 -14.058,39.084 -2.42,6.444 -4.748,12.642 -6.939,18.743 z m 162.677,102.75 c -8.107,-8.103 -12.35,-16.609 -12.35,-20.823 0,-3.763 0.645,-4.033 3.042,-5.042 6.833,-2.875 20.253,-3.207 29.753,-3.207 9.5,0 22.92,0.332 29.753,3.207 2.397,1.008 3.042,1.28 3.042,5.042 0,4.214 -4.242,12.719 -12.35,20.823 -7.973,7.968 -16.484,12.267 -20.446,12.267 -3.962,0 -12.471,-4.299 -20.444,-12.267 z m 133.098,85.278 c -24.051,11.755 -55.889,18.131 -96.983,19.394 v -64.194 c 12.304,-4.748 22.324,-13.708 26.93,-18.311 6.475,-6.471 21.535,-23.615 21.535,-42.989 0,-15.849 -7.894,-27.899 -22.228,-33.929 -9.554,-4.02 -21.696,-5.66 -41.906,-5.66 -20.21,0 -32.352,1.64 -41.907,5.66 -14.333,6.03 -22.228,18.079 -22.228,33.929 0,19.374 15.061,36.517 21.535,42.989 4.606,4.604 14.627,13.564 26.93,18.311 v 64.194 C 199.237,446.467 167.399,440.092 143.348,428.335 105.526,409.847 87.14,378.09 87.14,331.249 c 0,-40.072 9.234,-64.649 22.013,-98.664 4.413,-11.745 9.413,-25.057 14.456,-40.21 27.7,-83.236 57.002,-128.341 132.391,-128.341 75.389,0 104.691,45.106 132.39,128.341 5.042,15.154 10.044,28.465 14.456,40.21 12.779,34.015 22.013,58.591 22.013,98.664 0.001,46.841 -18.385,78.598 -56.206,97.086 z m 109.35,-208.076 c -9.202,16.451 -22.512,19.617 -38.88,20.048 -2.192,-6.102 -4.518,-12.299 -6.938,-18.743 -4.525,-12.044 -9.203,-24.498 -14.058,-39.084 -11.721,-35.223 -25.737,-71.451 -48.604,-99.327 7.684,-1.027 24.017,0.034 45.804,19.339 13.192,11.685 33.988,35.37 48.477,59.763 15.266,25.703 20.441,46.844 14.199,58.004 z"
       id="path1067" /><path
       d="m 203.851,199.256 c -11.337,0 -20.564,9.321 -20.564,20.83 0,11.508 9.226,20.837 20.564,20.837 11.352,0 20.577,-9.33 20.577,-20.837 0,-11.509 -9.225,-20.83 -20.577,-20.83 z"
       id="path1069" /><path
       d="m 307.995,199.093 c -11.447,0 -20.733,9.399 -20.733,20.993 0,11.594 9.286,20.993 20.733,20.993 11.434,0 20.719,-9.399 20.719,-20.993 10e-4,-11.594 -9.285,-20.993 -20.719,-20.993 z"
       id="path1071" /></g></g><path
   style="fill:#ffffff;fill-opacity:1;stroke:none;stroke-width:1px;stroke-linecap:butt;stroke-linejoin:miter;stroke-opacity:1"
   d="m 50.8,215.64935 16.859299,-2.74809 15.336108,-1.80425 21.650973,-0.90212 29.31903,3.6085 21.19992,5.8638 23.90628,13.98292 19.00839,15.91924 -0.0638,111.28025 -144.339843,-39.2424 z"
   id="path1715"
   sodipodi:nodetypes="ccccccccccc" /><path
   style="fill:#ffffff;fill-opacity:1;stroke:none;stroke-width:1px;stroke-linecap:butt;stroke-linejoin:miter;stroke-opacity:1"
   d="m 361.6,215.64935 -16.85931,-2.74809 -15.33611,-1.80425 -21.65097,-0.90213 -29.31903,3.6085 -21.19991,5.86381 -23.90629,13.98292 -19.00838,15.91924 0.0638,111.28025 144.33983,-39.24241 z"
   id="path1715-7"
   sodipodi:nodetypes="ccccccccccc" /></svg>
