<?xml version="1.0" encoding="iso-8859-1"?>
<!-- Generator: Adobe Illustrator 19.0.0, SVG Export Plug-In . SVG Version: 6.00 Build 0)  -->
<svg version="1.1" id="Capa_1" xmlns="http://www.w3.org/2000/svg" xmlns:xlink="http://www.w3.org/1999/xlink" x="0px" y="0px"
	 viewBox="0 0 512 512" style="enable-background:new 0 0 512 512;" xml:space="preserve">
<g>
	<g>
		<path style="fill: #fff;" d="M256,318c-35.841,0-65,29.159-65,65v129h130V383C321,347.159,291.841,318,256,318z"/>
	</g>
</g>
<g>
	<g>
		<path d="M256,0L23.5,310l24,18L76,290v222h85V383c0-52.383,42.617-95,95-95s95,42.617,95,95v129h85V290l28.5,38l24-18L256,0z
			 M326.58,239.217l-21.16,21.266L279.809,235h-47.618l-25.611,25.482l-21.16-21.266L204.733,220l-19.313-19.217l21.16-21.266
			L232.191,205h47.618l25.611-25.482l21.16,21.266L307.267,220L326.58,239.217z"/>
	</g>
</g>
<g>
</g>
<g>
</g>
<g>
</g>
<g>
</g>
<g>
</g>
<g>
</g>
<g>
</g>
<g>
</g>
<g>
</g>
<g>
</g>
<g>
</g>
<g>
</g>
<g>
</g>
<g>
</g>
<g>
</g>
</svg>
