<?xml version="1.0" encoding="iso-8859-1"?>
<!-- Generator: Adobe Illustrator 19.0.0, SVG Export Plug-In . SVG Version: 6.00 Build 0)  -->
<svg version="1.1" id="Capa_1" xmlns="http://www.w3.org/2000/svg" xmlns:xlink="http://www.w3.org/1999/xlink" x="0px" y="0px"
	 viewBox="0 0 512 512" style="enable-background:new 0 0 512 512;" xml:space="preserve">
<g>
	<g>
		<path d="M256,0L23.5,310l24,18L76,290v222h360V290l28.5,38l24-18L256,0z M321,482H191v-99c0-35.841,29.159-65,65-65
			s65,29.159,65,65V482z M406,482h-55v-99c0-52.383-42.617-95-95-95s-95,42.617-95,95v99h-55V250L256,50l150,200V482z"/>
	</g>
</g>
<g>
	<g>
		<polygon points="326.58,200.783 305.42,179.518 279.809,205 232.191,205 206.58,179.518 185.42,200.783 204.733,220 
			185.42,239.217 206.58,260.482 232.191,235 279.809,235 305.42,260.482 326.58,239.217 307.267,220 		"/>
	</g>
</g>
<g>
</g>
<g>
</g>
<g>
</g>
<g>
</g>
<g>
</g>
<g>
</g>
<g>
</g>
<g>
</g>
<g>
</g>
<g>
</g>
<g>
</g>
<g>
</g>
<g>
</g>
<g>
</g>
<g>
</g>
</svg>
